<?xml version="1.0" encoding="utf-8"?>
<!-- Generator: Adobe Illustrator 22.1.0, SVG Export Plug-In . SVG Version: 6.00 Build 0)  -->
<svg version="1.1" id="Layer_1" xmlns="http://www.w3.org/2000/svg" xmlns:xlink="http://www.w3.org/1999/xlink" x="0px" y="0px"
	 viewBox="0 0 193.7 333.8" style="enable-background:new 0 0 193.7 333.8;" xml:space="preserve">
<style type="text/css">
	.st0{fill:none;stroke:#000000;stroke-linejoin:round;stroke-miterlimit:10;}
	.st1{fill:none;stroke:#000000;stroke-miterlimit:10;}
</style>
<polygon class="st0" points="97.5,60.6 188.7,113.3 188.7,218.6 97.5,271.2 6.3,218.6 6.3,113.3 "/>
<g>
	<g>
		<g>
			<g>
				<path class="st1" d="M17.6,91.2l-9.9,5.7c-2.4,1.4-4.3-0.1-4.3-3.5V59.7c0-3.4,1.8-7,4.2-8.3l10.1-5.8c2.4-1.4,4.2,0.1,4.2,3.5
					v9.2l-6.2,3.6v-6.5l-6,3.4v28.4l6-3.4v-7l6.2-3.6v9.7C21.8,86.3,19.9,89.8,17.6,91.2z"/>
				<path class="st1" d="M39.2,78.7l-10.2,5.9c-2.4,1.4-4-0.2-4-3.6V47.3c0-3.4,2-7.2,4.3-8.6l9.6-5.5c2.4-1.4,4.3,0.1,4.3,3.5v33.7
					C43.3,73.9,41.6,77.3,39.2,78.7z M37,43l-5.7,3.3v27.5l5.7-3.3V43z"/>
				<path class="st1" d="M68.7,61.7V29.2l-0.4,0.2l-5.5,32.2l-4.7,2.7L53,37.1l-0.3,0.2v33.7l-6,3.4V28.8l9.4-5.4l4.6,22.9l0.1-0.1
					l4.9-28.4l9.6-5.5v45.6L68.7,61.7z"/>
				<path class="st1" d="M92.4,30.8l-8,4.6v17.1l-6.2,3.6V10.6l13.9-8.1c2.4-1.4,4.3,0.1,4.3,3.5v16.6
					C96.5,26.4,94.4,29.7,92.4,30.8z M90.3,12.2l-5.8,3.4v11.3l5.8-3.4V12.2z"/>
			</g>
			<g>
				<path class="st1" d="M118.1,57l-12.3-7.1c-2.6-1.5-4.5-5.1-4.5-8.5V1.6l7,4v36.1l7.4,4.3V9.9l7,4v39.7
					C122.6,57.1,120.8,58.5,118.1,57z"/>
				<path class="st1" d="M140.3,33v36.8l-7-4V28.9l-7.7-4.5v-8.8l22.5,13v8.8L140.3,33z"/>
				<path class="st1" d="M150.9,75.8V30.2l18.4,10.6v9l-11.7-6.7v9.2l9.3,5.3v8.5l-9.3-5.3v9.7l11.7,6.7v9.2L150.9,75.8z"/>
				<path class="st1" d="M186.2,96.2V77.4l-6.5-3.7v18.8l-7.1-4.1V42.8l15.5,8.9c2.6,1.5,4.8,5.8,4.8,9.3v11.2
					c0,3.3-1.4,4.6-3.3,3.7c2.5,1.7,3.5,5.6,3.5,9.5v14.9L186.2,96.2z M186,58.8l-6.5-3.7v10.2l6.5,3.7V58.8z"/>
			</g>
		</g>
		<g>
			<path class="st1" d="M26.5,285.7c0,3.4-2.7,4.5-6,2.6l-13.8-7.9c-3.3-1.9-6.1-6.2-6.1-9.6v-7.2l8.7,5v4.9l8.7,5V268l-11.3-6.5
				c-3.3-1.9-6.1-6-6.1-8.8v-15.6c0-3.8,2.8-4.3,6.1-2.4l14,8.1c3.3,1.9,5.8,5.9,5.8,9.3v7.1l-8.5-4.9v-4.7l-8.6-4.9v10.1l11.2,6.5
				c3.3,1.9,5.8,5.9,5.8,9.3V285.7z"/>
			<path class="st1" d="M52,306.4l-13.8-7.9c-3.3-1.9-6-6.1-6-9.5v-33.7c0-3.4,2.5-4.4,5.8-2.5l14,8.1c3.3,1.9,5.8,5.8,5.8,9.3v9.2
				l-8.6-5v-6.5l-8.3-4.8v28.4l8.3,4.8v-7l8.6,5v9.7C57.8,307.3,55.2,308.3,52,306.4z"/>
			<path class="st1" d="M64.9,313.9v-45.6l8.7,5v45.6L64.9,313.9z"/>
			<path class="st1" d="M131.9,312.7l-10.6-19.4l-0.1,0v25.5l-7.2,4.2v-45.6l7.5-4.3l10.3,18.5l0.1-0.1v-24.5l7.1-4.1v45.6
				L131.9,312.7z"/>
			<path class="st1" d="M161.6,295.6l-12.4,7.2c-3,1.7-5.4,0.5-5.4-2.9v-33.7c0-3.4,2.3-7.2,5.2-8.9l12.6-7.3c3-1.7,5.2-0.5,5.2,2.9
				v9.2l-7.8,4.5V260l-7.5,4.3v28.4l7.5-4.3v-7l7.8-4.5v9.7C166.9,290.1,164.6,293.9,161.6,295.6z"/>
			<path class="st1" d="M171.2,290.1v-45.6l20.7-12v9l-13.1,7.6v9.2l10.4-6v8.5l-10.4,6v9.7l13.1-7.6v9.2L171.2,290.1z"/>
			<g>
				<path class="st1" d="M82.8,324v-45.6l14.9,8.6l11.7-6.8v9l-11.7,6.8l-5.1-3v9.2l5.1,3l8.2-4.7v8.6l-8.2,4.7l-5.1-3v9.7l5.1,2.9
					l11.7-6.8v9.2l-11.7,6.8L82.8,324z"/>
			</g>
		</g>
	</g>
	<g>
		<g>
			<g>
				<path class="st1" d="M135.6,159.2v12.9c0,1.5-1.6,2.4-2.8,1.6l-9.8-5.6v0l-14.1-8.1c-0.6-0.3-0.9-1-0.9-1.6V88.8
					c0-1.5,1.6-2.4,2.8-1.6l11.2,6.5c0.6,0.3,0.9,1,0.9,1.6v54.5c0,0.7,0.4,1.3,0.9,1.6l10.7,6.2
					C135.2,157.9,135.6,158.5,135.6,159.2z"/>
			</g>
			<g>
				<path class="st1" d="M171,123V136c0,1.5-1.6,2.4-2.8,1.6l-10.1-5.8c-0.8-0.5-1.9,0.1-1.9,1.1v51.2c0,1.5-1.6,2.4-2.8,1.6
					l-11.2-6.5c-0.6-0.3-0.9-1-0.9-1.6v-53.8c0-1.1-0.6-2.1-1.6-2.7l-9.1-5.3c-0.6-0.3-0.9-1-0.9-1.6v-12.9c0-1.5,1.6-2.4,2.8-1.6
					l9.8,5.6v0l15,8.7l12.8,7.4C170.6,121.7,171,122.3,171,123z"/>
			</g>
		</g>
		<polygon class="st0" points="97.5,60.6 188.7,113.3 188.7,218.6 97.5,271.2 6.3,218.6 6.3,113.3 		"/>
		<g>
			<path class="st1" d="M97.2,166l68.6,39.6l-68.6,39.6l-68.6-39.6v-79.2l68.6-39.6V166z"/>
			<g>
				<line class="st0" x1="28.6" y1="205.6" x2="97.2" y2="166"/>
				<path class="st0" d="M97.2,166l68.6,39.6l-68.6,39.6l-68.6-39.6v-79.2l68.6-39.6V166z"/>
			</g>
			<g>
				<path class="st1" d="M42.1,131.4l41.6-24c1.5-0.9,3.5,0.2,3.5,2v48c0,2.5-1.3,4.8-3.5,6.1l-41.6,24c-1.5,0.9-3.5-0.2-3.5-2v-48
					C38.7,135,40,132.7,42.1,131.4z"/>
				<path class="st1" d="M96.4,216.1l20.1-11.6c0.6-0.3,1.3-0.3,1.9,0l10.5,6.1c0.9,0.5,0.9,1.8,0,2.3l-20.1,11.6
					c-0.6,0.4-1.4,0.4-2,0l-10.4-6C95.5,217.9,95.5,216.6,96.4,216.1z"/>
				<g>
					<path class="st1" d="M76.3,216l-2.1-1.2c-0.2-0.1-0.4-0.2-0.6-0.2c-0.2,0-0.4,0.1-0.6,0.2l-3.2,1.9c-0.4,0.2-0.6,0.6-0.6,1
						c0,0.4,0.2,0.8,0.6,1l0.6,0.3c1.3,0.8,2.9,0.8,4.2,0l1.7-1c0.4-0.2,0.6-0.6,0.6-1C76.9,216.6,76.6,216.2,76.3,216z"/>
					<path class="st1" d="M84.1,211.5l-2.1-1.2c-0.2-0.1-0.4-0.2-0.6-0.2c-0.2,0-0.4,0.1-0.6,0.2l-3.9,2.2c-0.4,0.2-0.6,0.6-0.6,1
						c0,0.4,0.2,0.8,0.6,1l2.1,1.2c0.4,0.2,0.8,0.2,1.2,0l3.9-2.2c0.4-0.2,0.6-0.6,0.6-1C84.7,212.1,84.4,211.7,84.1,211.5z"/>
					<path class="st1" d="M92.1,207.1l-2.4-1.4c-0.2-0.1-0.3-0.1-0.5-0.1c-0.2,0-0.4,0-0.5,0.1l-4.1,2.4c-0.3,0.2-0.5,0.5-0.5,0.9
						c0,0.4,0.2,0.7,0.5,0.9l2.4,1.4c0.3,0.2,0.7,0.2,1,0l4.1-2.4c0.3-0.2,0.5-0.5,0.5-0.9C92.6,207.6,92.4,207.3,92.1,207.1z"/>
					<path class="st1" d="M69.2,210l3.9,2.2c0.4,0.2,0.8,0.2,1.2,0l3.9-2.2c0.4-0.2,0.6-0.6,0.6-1c0-0.4-0.2-0.8-0.6-1l-3.9-2.2
						c-0.2-0.1-0.4-0.2-0.6-0.2c-0.2,0-0.4,0.1-0.6,0.2l-3.9,2.2c-0.4,0.2-0.6,0.6-0.6,1C68.6,209.4,68.8,209.8,69.2,210z"/>
					<path class="st1" d="M70.2,212.5l-3.9-2.2c-0.2-0.1-0.4-0.2-0.6-0.2c-0.2,0-0.4,0.1-0.6,0.2l-3.2,1.9c-0.4,0.2-0.6,0.6-0.6,1
						c0,0.4,0.2,0.8,0.6,1l3.9,2.2c0.4,0.2,0.8,0.2,1.2,0l3.2-1.9c0.4-0.2,0.6-0.6,0.6-1S70.6,212.7,70.2,212.5z"/>
					<path class="st1" d="M94.1,179.4l2.8,1.6l2.1-1.2c0.4-0.2,0.6-0.6,0.6-1.1c0-0.5-0.2-0.9-0.6-1.1l-0.8-0.4
						c-0.6-0.4-1.4-0.6-2.1-0.6c-0.7,0-1.4,0.2-2.1,0.6c-0.4,0.2-0.6,0.6-0.6,1.1C93.5,178.8,93.8,179.2,94.1,179.4z"/>
					<path class="st1" d="M86.4,183.9l2.2,1.3c0.4,0.2,0.9,0.2,1.3,0l3.6-2.1c0.4-0.2,0.6-0.6,0.6-1.1c0-0.5-0.2-0.9-0.6-1.1
						l-2.2-1.3c-0.2-0.1-0.4-0.2-0.6-0.2c-0.2,0-0.4,0.1-0.6,0.2l-3.6,2.1c-0.4,0.2-0.6,0.6-0.6,1.1C85.7,183.3,86,183.7,86.4,183.9
						z"/>
					<path class="st1" d="M100.5,183.1l3.6,2.1c0.4,0.2,0.9,0.2,1.3,0l1.4-0.8c0.4-0.2,0.6-0.6,0.6-1.1c0-0.5-0.2-0.9-0.6-1.1
						l-3.6-2.1c-0.4-0.2-0.9-0.2-1.3,0l-1.4,0.8c-0.4,0.2-0.6,0.6-0.6,1.1C99.9,182.5,100.1,182.9,100.5,183.1z"/>
					<path class="st1" d="M96.3,189.7c0.4,0.2,0.9,0.2,1.3,0l3.6-2.1c0.4-0.2,0.6-0.6,0.6-1.1c0-0.5-0.2-0.9-0.6-1.1l-3.6-2.1
						c-0.4-0.2-0.9-0.2-1.3,0l-3.6,2.1c-0.4,0.2-0.6,0.6-0.6,1.1c0,0.5,0.2,0.9,0.6,1.1L96.3,189.7z"/>
					<path class="st1" d="M78.6,188.5l2.2,1.3c0.4,0.2,0.9,0.2,1.3,0l3.6-2.1c0.4-0.2,0.6-0.6,0.6-1.1c0-0.5-0.2-0.9-0.6-1.1
						l-2.2-1.3c-0.2-0.1-0.4-0.2-0.6-0.2c-0.2,0-0.4,0.1-0.6,0.2l-3.6,2.1c-0.4,0.2-0.6,0.6-0.6,1.1
						C77.9,187.8,78.2,188.2,78.6,188.5z"/>
					<path class="st1" d="M55.3,203.9L52,202c-0.2-0.1-0.5-0.1-0.8,0l-2.8,1.6c-0.5,0.3-0.8,0.8-0.8,1.3c0,0.6,0.3,1.1,0.8,1.3
						l2.1,1.2c0.2,0.1,0.5,0.1,0.8,0l4-2.3c0.2-0.1,0.4-0.4,0.4-0.7S55.5,204,55.3,203.9z"/>
					<path class="st1" d="M62.5,208l-3.9-2.2c-0.4-0.2-0.8-0.2-1.2,0l-3.2,1.9c-0.4,0.2-0.6,0.6-0.6,1c0,0.4,0.2,0.8,0.6,1l3.9,2.2
						c0.4,0.2,0.8,0.2,1.2,0l3.2-1.9c0.4-0.2,0.6-0.6,0.6-1C63,208.6,62.8,208.2,62.5,208z"/>
					<path class="st1" d="M55,201.8l2.4,1.4c0.4,0.2,0.8,0.2,1.2,0l3.9-2.2c0.4-0.2,0.6-0.6,0.6-1s-0.2-0.8-0.6-1l-2.4-1.4
						c-0.4-0.2-0.8-0.2-1.2,0l-3.9,2.2c-0.4,0.2-0.6,0.6-0.6,1C54.4,201.3,54.6,201.6,55,201.8z"/>
					<path class="st1" d="M65.2,201.3l-3.9,2.2c-0.4,0.2-0.6,0.6-0.6,1c0,0.4,0.2,0.8,0.6,1l4.4,2.6l4.4-2.6c0.4-0.2,0.6-0.6,0.6-1
						c0-0.4-0.2-0.8-0.6-1l-3.9-2.2C66,201.1,65.6,201.1,65.2,201.3z"/>
					<path class="st1" d="M62.6,197.2l2.7,1.5c0.3,0.2,0.7,0.2,1,0l4.1-2.4c0.3-0.2,0.5-0.5,0.5-0.9c0-0.4-0.2-0.7-0.5-0.9l-2.7-1.5
						c-0.2-0.1-0.3-0.1-0.5-0.1c-0.2,0-0.4,0-0.5,0.1l-4.1,2.4c-0.3,0.2-0.5,0.5-0.5,0.9C62.1,196.7,62.3,197.1,62.6,197.2z"/>
					<path class="st1" d="M70.4,192.7l2.7,1.6c0.3,0.2,0.7,0.2,1,0l4.1-2.4c0.3-0.2,0.5-0.5,0.5-0.9c0-0.4-0.2-0.7-0.5-0.9l-2.7-1.5
						c-0.2-0.1-0.3-0.1-0.5-0.1c-0.2,0-0.4,0-0.5,0.1l-4.1,2.4c-0.3,0.2-0.5,0.5-0.5,0.9C69.9,192.2,70.1,192.6,70.4,192.7z"/>
					<path class="st1" d="M81.9,207.8l4.1-2.4c0.3-0.2,0.5-0.5,0.5-0.9c0-0.4-0.2-0.7-0.5-0.9l-4.1-2.4c-0.3-0.2-0.7-0.2-1,0
						l-4.1,2.4c-0.3,0.2-0.5,0.5-0.5,0.9c0,0.4,0.2,0.7,0.5,0.9l4.1,2.4C81.2,208,81.6,208,81.9,207.8z"/>
					<path class="st1" d="M73.6,196.6c-0.2,0-0.4,0-0.5,0.1l-4.1,2.4c-0.3,0.2-0.5,0.5-0.5,0.9c0,0.4,0.2,0.7,0.5,0.9l4.1,2.4
						c0.3,0.2,0.7,0.2,1,0l4.1-2.4c0.3-0.2,0.5-0.5,0.5-0.9c0-0.4-0.2-0.7-0.5-0.9l-4.1-2.4C74,196.7,73.8,196.6,73.6,196.6z"/>
					<path class="st1" d="M81.4,192.1c-0.2,0-0.4,0-0.5,0.1l-4.1,2.4c-0.3,0.2-0.5,0.5-0.5,0.9c0,0.4,0.2,0.7,0.5,0.9l4.1,2.4
						c0.3,0.2,0.7,0.2,1,0l4.1-2.4c0.3-0.2,0.5-0.5,0.5-0.9c0-0.4-0.2-0.7-0.5-0.9l-4.1-2.4C81.8,192.2,81.6,192.1,81.4,192.1z"/>
					<path class="st1" d="M89.7,203.3l4.1-2.4c0.3-0.2,0.5-0.5,0.5-0.9c0-0.4-0.2-0.7-0.5-0.9l-4.1-2.4c-0.3-0.2-0.7-0.2-1,0
						l-4.1,2.4c-0.3,0.2-0.5,0.5-0.5,0.9c0,0.4,0.2,0.7,0.5,0.9l4.1,2.4C89,203.5,89.4,203.5,89.7,203.3z"/>
					<path class="st1" d="M89.2,187.7c-0.2,0-0.4,0.1-0.6,0.2l-3.6,2.1c-0.4,0.2-0.6,0.6-0.6,1.1c0,0.5,0.2,0.9,0.6,1.1l4.3,2.5
						l4.3-2.5c0.4-0.2,0.6-0.6,0.6-1.1c0-0.5-0.2-0.9-0.6-1.1l-3.6-2.1C89.6,187.7,89.4,187.7,89.2,187.7z"/>
					<path class="st1" d="M97.6,198.7l3.6-2.1c0.4-0.2,0.6-0.6,0.6-1.1c0-0.5-0.2-0.9-0.6-1.1l-3.6-2.1c-0.4-0.2-0.9-0.2-1.3,0
						l-3.6,2.1c-0.4,0.2-0.6,0.6-0.6,1.1c0,0.5,0.2,0.9,0.6,1.1l3.6,2.1C96.7,198.9,97.2,198.9,97.6,198.7z"/>
					<path class="st1" d="M99.9,202.6l-2.4-1.4c-0.3-0.2-0.7-0.2-1,0l-4.1,2.4c-0.3,0.2-0.5,0.5-0.5,0.9c0,0.4,0.2,0.7,0.5,0.9
						l2.4,1.4c0.3,0.2,0.7,0.2,1,0l4.1-2.4c0.3-0.2,0.5-0.5,0.5-0.9C100.4,203.1,100.2,202.8,99.9,202.6z"/>
					<path class="st1" d="M107.3,197.9l-1.9-1.1c-0.2-0.1-0.4-0.2-0.6-0.2c-0.2,0-0.4,0.1-0.6,0.2l-3.6,2.1
						c-0.4,0.2-0.6,0.6-0.6,1.1c0,0.5,0.2,0.9,0.6,1.1l1.9,1.1c0.4,0.2,0.9,0.2,1.3,0l3.6-2.1c0.4-0.2,0.6-0.6,0.6-1.1
						C107.9,198.6,107.7,198.1,107.3,197.9z"/>
					<path class="st1" d="M105.4,194.2l3.6-2.1c0.4-0.2,0.6-0.6,0.6-1.1c0-0.5-0.2-0.9-0.6-1.1l-3.6-2.1c-0.2-0.1-0.4-0.2-0.6-0.2
						c-0.2,0-0.4,0.1-0.6,0.2l-3.6,2.1c-0.4,0.2-0.6,0.6-0.6,1.1c0,0.5,0.2,0.9,0.6,1.1l3.6,2.1C104.5,194.5,105,194.5,105.4,194.2z
						"/>
					<path class="st1" d="M108.3,187.6l3.6,2.1c0.4,0.2,0.9,0.2,1.3,0l1.4-0.8c0.4-0.2,0.6-0.6,0.6-1.1c0-0.5-0.2-0.9-0.6-1.1
						l-3.6-2.1c-0.2-0.1-0.4-0.2-0.6-0.2c-0.2,0-0.4,0.1-0.6,0.2l-1.4,0.8c-0.4,0.2-0.6,0.6-0.6,1.1
						C107.7,187,107.9,187.4,108.3,187.6z"/>
					<path class="st1" d="M115.1,193.4l-1.9-1.1c-0.2-0.1-0.4-0.2-0.6-0.2c-0.2,0-0.4,0.1-0.6,0.2l-3.6,2.1
						c-0.4,0.2-0.6,0.6-0.6,1.1c0,0.5,0.2,0.9,0.6,1.1l1.9,1.1c0.4,0.2,0.9,0.2,1.3,0l3.6-2.1c0.4-0.2,0.6-0.6,0.6-1.1
						C115.7,194.1,115.5,193.6,115.1,193.4z"/>
					<path class="st1" d="M118.9,189.2l-0.4-0.3c-0.1-0.1-0.2-0.1-0.3-0.1c-0.1,0-0.2,0-0.3,0.1l-2.7,1.6c-0.2,0.1-0.3,0.3-0.3,0.6
						c0,0.2,0.1,0.4,0.3,0.6l3.1,1.8c0.2,0.1,0.4,0.1,0.6,0c0.8-0.4,1.2-1.2,1.2-2.1C120.1,190.4,119.7,189.6,118.9,189.2z"/>
				</g>
			</g>
		</g>
	</g>
</g>
</svg>
